<svg width="30" height="30" viewBox="0 0 30 30" fill="none" xmlns="http://www.w3.org/2000/svg">
<path d="M26.7857 28.9286H6.42858C5.57611 28.9286 4.75852 28.59 4.15574 27.9872C3.55295 27.3844 3.21429 26.5667 3.21429 25.7143C3.21429 24.8619 3.55295 24.0442 4.15574 23.4414C4.75852 22.8386 5.57611 22.5 6.42858 22.5H24.6429C25.2112 22.5 25.7563 22.2742 26.1581 21.8724C26.5599 21.4706 26.7857 20.9255 26.7857 20.3572V3.2143C26.7857 2.64597 26.5599 2.10093 26.1581 1.69907C25.7563 1.29721 25.2112 1.07144 24.6429 1.07144H6.42858C5.59074 1.07114 4.78591 1.398 4.18552 1.98238C3.58512 2.56677 3.23664 3.36248 3.21429 4.20001V25.6286" stroke="black" stroke-linecap="round" stroke-linejoin="round"/>
<path d="M24.6429 22.5V28.9286" stroke="black" stroke-linecap="round" stroke-linejoin="round"/>
<path d="M17.2532 10.7185H22.2139L16.9431 18.1597H22.524" stroke="black" stroke-linecap="round" stroke-linejoin="round"/>
<path d="M7.52515 12.8262L9.80948 5.97317C9.92658 5.62185 10.2553 5.38489 10.6257 5.38489C10.996 5.38489 11.3248 5.62185 11.4419 5.97317L13.7262 12.8262M8.35195 10.3457H12.8994" stroke="black" stroke-linecap="round" stroke-linejoin="round"/>
</svg>
