<svg width="30" height="30" viewBox="0 0 30 30" fill="none" xmlns="http://www.w3.org/2000/svg">
<path d="M7.45812 22.5701C8.80889 22.5701 9.90389 21.4751 9.90389 20.1244C9.90389 18.7736 8.80889 17.6786 7.45812 17.6786C6.10735 17.6786 5.01233 18.7736 5.01233 20.1244C5.01233 21.4751 6.10735 22.5701 7.45812 22.5701Z" stroke="black" stroke-linecap="round" stroke-linejoin="round"/>
<path d="M3.05365 28.8829C3.06143 28.1372 3.2581 27.4057 3.62526 26.7566C4.39898 25.3888 5.88496 24.5203 7.45606 24.5169C9.02716 24.5203 10.5132 25.3888 11.2869 26.7566C11.654 27.4057 11.8507 28.1372 11.8585 28.8829" stroke="black" stroke-linecap="round" stroke-linejoin="round"/>
<path d="M22.5544 22.5701C23.9052 22.5701 25.0002 21.4751 25.0002 20.1244C25.0002 18.7736 23.9052 17.6786 22.5544 17.6786C21.2036 17.6786 20.1086 18.7736 20.1086 20.1244C20.1086 21.4751 21.2036 22.5701 22.5544 22.5701Z" stroke="black" stroke-linecap="round" stroke-linejoin="round"/>
<path d="M18.1499 28.8829C18.1577 28.1372 18.3544 27.4057 18.7215 26.7566C19.4952 25.3888 20.9812 24.5203 22.5523 24.5169C24.1234 24.5203 25.6095 25.3888 26.383 26.7566C26.7503 27.4057 26.947 28.1372 26.9548 28.8829" stroke="black" stroke-linecap="round" stroke-linejoin="round"/>
<path d="M14.9978 8.6723C16.2587 8.6723 17.2808 7.65016 17.2808 6.38928C17.2808 5.1284 16.2587 4.10626 14.9978 4.10626C13.7369 4.10626 12.7148 5.1284 12.7148 6.38928C12.7148 7.65016 13.7369 8.6723 14.9978 8.6723Z" stroke="black" stroke-linecap="round" stroke-linejoin="round"/>
<path d="M10.731 14.3963C10.7386 13.6733 10.9293 12.964 11.2852 12.3346C12.0355 11.0084 13.4763 10.1662 14.9996 10.1629C16.5229 10.1662 17.9638 11.0084 18.714 12.3346C19.07 12.964 19.2607 13.6733 19.2682 14.3963" stroke="black" stroke-linecap="round" stroke-linejoin="round"/>
<path d="M25.2467 1.16769H4.7533C3.90329 1.16769 3.21423 1.85676 3.21423 2.70675V12.8571C3.21423 13.7072 3.90329 14.3962 4.7533 14.3962H25.2467C26.0965 14.3962 26.7857 13.7072 26.7857 12.8571V2.70675C26.7857 1.85676 26.0965 1.16769 25.2467 1.16769Z" stroke="black" stroke-linecap="round" stroke-linejoin="round"/>
</svg>
