<svg width="97" height="68" viewBox="0 0 97 68" fill="none" xmlns="http://www.w3.org/2000/svg">
<path d="M30.2986 34.2597C30.1642 30.8247 30.6748 27.3949 31.8039 24.148C20.0275 26.8707 12.8921 30.7328 13.0222 34.808L13.0224 34.8124C13.1549 38.8865 20.5198 42.2843 32.4427 44.2519C31.1102 41.0845 30.3829 37.6954 30.2986 34.2602L30.2986 34.2597Z" fill="url(#paint0_linear_1_16)"/>
<path d="M86.2949 32.3073L86.4604 37.4926C94.538 35.9361 96 34.0401 95.9344 31.9957C95.8689 29.9512 94.2888 28.1611 86.1298 27.1191L86.2949 32.3073Z" fill="url(#paint1_linear_1_16)"/>
<path d="M62.8231 20.4055C56.7649 20.8034 50.4042 21.418 43.7769 22.3095C40.3803 22.7664 37.0761 23.2709 33.8645 23.8231C31.5039 30.538 31.7375 37.8926 34.5196 44.4442C37.7895 44.7869 41.1492 45.0785 44.5987 45.319C51.3178 45.7839 57.7539 45.9913 63.8755 46.0032C68.2866 51.6019 76.442 55.3112 86.9815 54.9754L86.6779 45.4564C86.6247 43.7148 86.1496 42.6915 84.373 42.7459L84.3397 42.7528L84.0147 32.5467L83.6789 22.0067C85.5599 21.9491 85.8974 20.9419 85.8414 19.193L85.5372 9.638C74.7963 9.98141 66.7504 14.3629 62.8231 20.4055ZM37.279 34.0377C37.254 33.2549 37.4617 32.4822 37.8758 31.8174C38.2899 31.1526 38.8919 30.6256 39.6056 30.3029C40.3192 29.9803 41.1125 29.8765 41.8852 30.0047C42.6578 30.1329 43.3751 30.4873 43.9463 31.0233C44.5175 31.5591 44.917 32.2523 45.0942 33.0153C45.2714 33.7782 45.2184 34.5765 44.9418 35.3093C44.6653 36.0421 44.1777 36.6764 43.5407 37.132C42.9036 37.5877 42.1458 37.8442 41.363 37.8691C40.3134 37.9024 39.2935 37.5175 38.5277 36.799C37.7618 36.0805 37.3127 35.0873 37.279 34.0377ZM50.1728 33.6265C50.1479 32.8437 50.3555 32.0712 50.77 31.4066C51.184 30.7419 51.7856 30.215 52.4995 29.8925C53.2128 29.5699 54.0064 29.4662 54.7789 29.5945C55.5514 29.7227 56.2682 30.0772 56.8392 30.613C57.4108 31.1488 57.8101 31.842 57.9873 32.6048C58.1644 33.3676 58.1109 34.1658 57.8346 34.8985C57.5583 35.6312 57.0708 36.2654 56.4335 36.7209C55.7967 37.1765 55.0389 37.433 54.2563 37.4579C53.2067 37.4912 52.1867 37.1063 51.4213 36.3877C50.6554 35.6692 50.2064 34.676 50.1728 33.6265ZM70.982 32.9632C71.0069 33.7459 70.7993 34.5184 70.3848 35.1831C69.9708 35.8477 69.3692 36.3746 68.6554 36.6971C67.942 37.0197 67.1485 37.1234 66.376 36.9951C65.6034 36.8669 64.8866 36.5124 64.3151 35.9766C63.7441 35.4408 63.3447 34.7476 63.1676 33.9848C62.9904 33.222 63.0434 32.4238 63.3202 31.6912C63.5966 30.9585 64.084 30.3243 64.7213 29.8687C65.3581 29.4131 66.1159 29.1566 66.8986 29.1318C67.4182 29.1152 67.936 29.2012 68.4228 29.3848C68.9091 29.5684 69.3549 29.8461 69.734 30.2019C70.1132 30.5577 70.4186 30.9847 70.6328 31.4586C70.8469 31.9325 70.9661 32.4439 70.9825 32.9637L70.982 32.9632Z" fill="url(#paint2_linear_1_16)"/>
<path d="M38.9295 33.9828C38.9576 34.5886 39.223 35.159 39.6683 35.5707C40.1136 35.9824 40.703 36.2024 41.3092 36.1831C41.9153 36.1638 42.4896 35.9067 42.9078 35.4675C43.3259 35.0282 43.5544 34.442 43.5439 33.8357C43.5244 33.2238 43.2626 32.6446 42.8162 32.2257C42.3697 31.8068 41.7751 31.5825 41.1632 31.602C40.5513 31.6215 39.9721 31.8833 39.5532 32.3298C39.1343 32.7762 38.91 33.3708 38.9295 33.9828Z" fill="url(#paint3_linear_1_16)"/>
<path d="M51.8232 33.5715L51.8233 33.5759C51.8512 34.1818 52.1167 34.7522 52.5621 35.1639C53.0076 35.5756 53.5971 35.7956 54.2029 35.7763C54.8092 35.757 55.3835 35.4999 55.8015 35.0606C56.2199 34.6214 56.4485 34.0352 56.4378 33.4289C56.4186 32.8169 56.1568 32.2377 55.7102 31.8186C55.264 31.3996 54.669 31.1751 54.0573 31.1944C53.445 31.2138 52.8659 31.4755 52.4472 31.922C52.028 32.3684 51.8036 32.963 51.8228 33.575L51.8232 33.5715Z" fill="url(#paint4_linear_1_16)"/>
<path d="M64.7176 33.1608L64.7176 33.1632C64.7455 33.7691 65.011 34.3395 65.4564 34.7512C65.9019 35.1629 66.4913 35.3829 67.0971 35.3636C67.7034 35.3443 68.2778 35.0872 68.6958 34.6479C69.1142 34.2087 69.3428 33.6225 69.3321 33.0161C69.3124 32.4042 69.0511 31.8251 68.6045 31.4062C68.1578 30.9872 67.5633 30.7628 66.9515 30.7822C66.3398 30.8017 65.7607 31.0634 65.3415 31.5098C64.9228 31.9563 64.6984 32.5508 64.7176 33.1627L64.7176 33.1608Z" fill="url(#paint5_linear_1_16)"/>
<path d="M31.4562 21.7089C21.7265 23.9588 10.1682 28.0726 10.3769 34.8963L10.379 34.9638C10.6094 40.4143 17.9678 44.3723 32.2507 46.7292L32.2815 46.7342L36.7451 47.3785C38.7629 47.6328 40.8559 47.8498 42.9847 48.0257C43.4081 48.0607 43.8347 48.0942 44.2646 48.1261C47.1197 48.3375 50.1156 48.481 53.1893 48.5546C52.5635 49.4192 51.8837 50.2434 51.1537 51.0222C47.6865 54.7132 43.1737 57.2559 38.2205 58.3097C33.2673 59.3635 28.1103 58.878 23.4409 56.9181C18.7714 54.9583 14.8126 51.6179 12.0951 47.3447C9.3777 43.0715 8.03154 38.0697 8.23702 33.0098C8.4425 27.9499 10.1899 23.0737 13.2448 19.0349C16.2999 14.9959 20.5164 11.9877 25.3295 10.4132C30.1425 8.83825 35.3219 8.77246 40.1733 10.2243C45.0248 11.6767 49.3164 14.5769 52.473 18.5367C49.331 18.8084 46.2696 19.15 43.3545 19.5552C42.929 19.6146 42.5053 19.6751 42.0832 19.7366C39.9728 20.0477 37.8965 20.3952 35.9032 20.7776L31.4562 21.7089Z" fill="url(#paint6_linear_1_16)"/>
<path d="M0.983733 35.0264C1.21968 42.1134 3.7949 48.9231 8.30756 54.3928C12.8202 59.8625 19.0165 63.6846 25.9297 65.2628C32.8428 66.8409 40.0839 66.0864 46.5231 63.1168C52.9622 60.1473 58.2377 55.1298 61.5256 48.8472C60.1873 48.8225 58.8636 48.79 57.5554 48.7498C55.2557 52.5592 52.103 55.7826 48.3452 58.166C44.0842 60.86 39.1865 62.3793 34.1489 62.5698C29.1113 62.7602 24.1128 61.6151 19.6605 59.2505C15.2083 56.886 11.4605 53.3861 8.79721 49.1057C6.13398 44.8254 4.65004 39.9169 4.49587 34.878C4.34171 29.8392 5.5228 24.8491 7.91938 20.414C10.316 15.9791 13.8428 12.2565 18.1422 9.62393C22.4416 6.99186 27.3607 5.54328 32.4005 5.42558C37.4404 5.30737 42.4218 6.52453 46.8396 8.95299C50.8383 11.1586 54.2533 14.2853 56.8027 18.0744C58.0996 17.9545 59.4095 17.8404 60.7328 17.7318C57.1169 11.5857 51.5574 6.81839 44.9318 4.18238C38.3059 1.54637 30.9909 1.19139 24.1411 3.1743C17.2913 5.15672 11.2967 9.36403 7.10335 15.1318C2.90992 20.8992 0.756453 27.899 0.982748 35.0264L0.983733 35.0264Z" fill="url(#paint7_linear_1_16)"/>
<defs>
<linearGradient id="paint0_linear_1_16" x1="94.4838" y1="32.292" x2="31.428" y2="34.2212" gradientUnits="userSpaceOnUse">
<stop stop-color="#1153FC"/>
<stop offset="1" stop-color="#5581F1"/>
</linearGradient>
<linearGradient id="paint1_linear_1_16" x1="94.4878" y1="32.0552" x2="31.4289" y2="33.9845" gradientUnits="userSpaceOnUse">
<stop stop-color="#1153FC"/>
<stop offset="1" stop-color="#5581F1"/>
</linearGradient>
<linearGradient id="paint2_linear_1_16" x1="94.5006" y1="32.0546" x2="31.4458" y2="33.9837" gradientUnits="userSpaceOnUse">
<stop stop-color="#1153FC"/>
<stop offset="1" stop-color="#5581F1"/>
</linearGradient>
<linearGradient id="paint3_linear_1_16" x1="94.4893" y1="32.2632" x2="31.43" y2="34.1925" gradientUnits="userSpaceOnUse">
<stop stop-color="#1153FC"/>
<stop offset="1" stop-color="#5581F1"/>
</linearGradient>
<linearGradient id="paint4_linear_1_16" x1="94.4893" y1="32.2506" x2="31.4325" y2="34.1798" gradientUnits="userSpaceOnUse">
<stop stop-color="#1153FC"/>
<stop offset="1" stop-color="#5581F1"/>
</linearGradient>
<linearGradient id="paint5_linear_1_16" x1="94.4908" y1="32.2326" x2="31.4316" y2="34.1619" gradientUnits="userSpaceOnUse">
<stop stop-color="#1153FC"/>
<stop offset="1" stop-color="#5581F1"/>
</linearGradient>
<linearGradient id="paint6_linear_1_16" x1="94.4544" y1="32.139" x2="31.4274" y2="34.0673" gradientUnits="userSpaceOnUse">
<stop stop-color="#1153FC"/>
<stop offset="1" stop-color="#5581F1"/>
</linearGradient>
<linearGradient id="paint7_linear_1_16" x1="94.5072" y1="32.1086" x2="31.4538" y2="34.0378" gradientUnits="userSpaceOnUse">
<stop stop-color="#1153FC"/>
<stop offset="1" stop-color="#5581F1"/>
</linearGradient>
</defs>
</svg>
