<svg width="40" height="40" viewBox="0 0 40 40" fill="none" xmlns="http://www.w3.org/2000/svg">
<path d="M32.15 28.8167L30 26.6667V18.3334C30 13.2167 27.2667 8.93335 22.5 7.80002V6.66669C22.5 5.28335 21.3834 4.16669 20 4.16669C18.6167 4.16669 17.5 5.28335 17.5 6.66669V7.80002C12.7167 8.93335 10 13.2 10 18.3334V26.6667L7.85002 28.8167C6.80002 29.8667 7.53336 31.6667 9.01669 31.6667H30.9667C32.4667 31.6667 33.2 29.8667 32.15 28.8167ZM26.6667 28.3334H13.3334V18.3334C13.3334 14.2 15.85 10.8334 20 10.8334C24.15 10.8334 26.6667 14.2 26.6667 18.3334V28.3334ZM20 36.6667C21.8334 36.6667 23.3334 35.1667 23.3334 33.3334H16.6667C16.6667 34.2174 17.0179 35.0653 17.643 35.6904C18.2681 36.3155 19.116 36.6667 20 36.6667Z" fill="#E7E2E2" fill-opacity="0.81"/>
</svg>
