<svg width="40" height="39" viewBox="0 0 40 39" fill="none" xmlns="http://www.w3.org/2000/svg">
<g clip-path="url(#clip0_26_192)">
<path d="M18.6002 36.409C17.119 37.3389 15.3561 37.7464 13.6044 37.564C11.8527 37.3815 10.2178 36.6202 8.97159 35.4062L7.88587 34.3476C7.40433 33.8729 7.13422 33.2325 7.13422 32.5647C7.13422 31.8973 7.40433 31.2566 7.88587 30.7819L12.4573 26.3526C12.9392 25.8848 13.5916 25.6222 14.2716 25.6222C14.9516 25.6222 15.604 25.8848 16.0859 26.3526C16.5726 26.8222 17.2297 27.0855 17.9144 27.0855C18.5992 27.0855 19.2562 26.8222 19.743 26.3526L27.0287 19.2491C27.5103 18.7745 27.7804 18.1338 27.7804 17.4662C27.7804 16.7986 27.5103 16.1579 27.0287 15.6833C26.5489 15.2135 26.2796 14.5774 26.2796 13.9144C26.2796 13.2514 26.5489 12.6154 27.0287 12.1455L31.4286 7.68834C31.9155 7.21881 32.5726 6.95547 33.2572 6.95547C33.942 6.95547 34.5992 7.21881 35.0858 7.68834L36.1715 8.74691C37.4389 9.94488 38.2466 11.5304 38.4598 13.2389C38.6732 14.9474 38.2789 16.6755 37.3429 18.1348C32.3609 25.3464 25.9967 31.5516 18.6002 36.409Z" stroke="white" stroke-linecap="round" stroke-linejoin="round"/>
<path d="M20 1.39288C17.5612 1.39288 15.1462 1.86124 12.893 2.77121C10.6398 3.68118 8.59256 5.01495 6.86805 6.69635C5.1435 8.37776 3.77556 10.3739 2.84225 12.5707C1.90895 14.7676 1.42859 17.1222 1.42859 19.5" stroke="white" stroke-linecap="round" stroke-linejoin="round"/>
<path d="M20 8.35718C16.969 8.35718 14.0621 9.53116 11.9188 11.6208C9.77556 13.7105 8.57147 16.5448 8.57147 19.5" stroke="white" stroke-linecap="round" stroke-linejoin="round"/>
</g>
<defs>
<clipPath id="clip0_26_192">
<rect width="40" height="39" fill="white"/>
</clipPath>
</defs>
</svg>
